# xmcd
#
# Track frame offsets:
#	150
#	10365
#	21900
#	37497
#	48910
#	63242
#	75525
#	84840
#	96340
#	107075
#	119087
#	131462
#	144375
#	154630
#	162805
#	174845
#	186897
#	196372
#	206587
#	220547
#	229867
#	245335
#
# Disc length: 3398 seconds
#
# Revision: 1
# Processed by: cddbd v1.5.2PL0 Copyright (c) Steve Scherf et al.
# Submitted via: EasyCDDAExtractor 16.0.9.1
#
DISCID=260d4416
DTITLE=Chayito Valdez - Chayito Valdez con Banda
DYEAR=2013
DGENRE=Ranchera
TTITLE0=El Rey
TTITLE1=La Ley del Monte
TTITLE2=Qudó Pendiente Una Boda
TTITLE3=Enséñame A Olvidar
TTITLE4=Mi Destino Fue Quererte
TTITLE5=Volver, Volver
TTITLE6=Tragos Amargos
TTITLE7=El Asesino
TTITLE8=El Chubasco
TTITLE9=Te Vas Angel Mío
TTITLE10=Los Dos Amigos
TTITLE11=La Tumba del Mojado
TTITLE12=La Basurita
TTITLE13=Ingratos Ojos Míos
TTITLE14=Se Está Cayendo El Jacal
TTITLE15=Camisa Mojada
TTITLE16=El Que Enamora Casadas
TTITLE17=Me Voy, Me Voy
TTITLE18=Tu Nuevo Cariñito
TTITLE19=Flor De Capomo
TTITLE20=Contrabando Y Traición
TTITLE21=Libre Albedrío
EXTD=
EXTT0=
EXTT1=
EXTT2=
EXTT3=
EXTT4=
EXTT5=
EXTT6=
EXTT7=
EXTT8=
EXTT9=
EXTT10=
EXTT11=
EXTT12=
EXTT13=
EXTT14=
EXTT15=
EXTT16=
EXTT17=
EXTT18=
EXTT19=
EXTT20=
EXTT21=
PLAYORDER=
